<svg width="1024" height="1024" viewBox="0 0 1024 1024" fill="none" xmlns="http://www.w3.org/2000/svg">
<path fill-rule="evenodd" clip-rule="evenodd" d="M803.016 489.645C880.934 520.795 915.94 581.087 915.94 717.638C915.94 902.454 748.271 984.874 509.602 990.316C270.933 995.758 100.252 797.912 109.347 642.782C114.234 559.42 162.038 465.456 198.88 465.456C236.907 413.815 278.727 362.18 316.701 353.977C312.597 335.163 310.449 315.575 310.449 295.456C310.449 151.058 394.191 34 571.268 34C748.346 34 832.088 151.058 832.088 295.456C832.088 326.192 827.074 355.689 817.733 383.082C819.404 384.971 821.128 386.72 822.936 388.279C824.921 389.992 826.995 391.762 829.117 393.574C847.735 409.468 870.13 428.587 870.13 440.335C870.13 453.422 855.388 468.944 836.532 477.641C829.59 480.843 817.916 485.355 803.016 489.645Z" fill="white"/>
<path d="M803.016 489.645L794.717 460.815C782.398 464.362 773.694 475.342 773.053 488.145C772.412 500.947 779.977 512.743 791.879 517.501L803.016 489.645ZM509.602 990.316L510.286 1020.31L509.602 990.316ZM109.347 642.782L79.3983 641.026L109.347 642.782ZM198.88 465.456V495.456C208.415 495.456 217.382 490.923 223.037 483.245L198.88 465.456ZM316.701 353.977L323.035 383.301C330.822 381.619 337.621 376.908 341.931 370.208C346.241 363.507 347.709 355.367 346.012 347.584L316.701 353.977ZM817.733 383.082L789.339 373.399C785.86 383.6 788.12 394.882 795.259 402.955L817.733 383.082ZM822.936 388.279L803.342 410.997L803.342 410.997L822.936 388.279ZM829.117 393.574L848.596 370.758L848.596 370.758L829.117 393.574ZM836.532 477.641L823.967 450.399L836.532 477.641ZM791.879 517.501C825.413 530.907 847.408 549.364 862.006 577.812C877.318 607.651 885.94 651.283 885.94 717.638H945.94C945.94 647.442 937.06 592.653 915.388 550.42C893.004 506.797 858.536 479.532 814.152 461.788L791.879 517.501ZM885.94 717.638C885.94 799.033 849.942 856.475 786.489 895.73C721.203 936.118 625.744 957.66 508.918 960.324L510.286 1020.31C632.129 1017.53 739.839 995.142 818.055 946.755C898.104 897.234 945.94 821.059 945.94 717.638H885.94ZM508.918 960.324C398.31 962.846 303.484 918.306 237.285 855.071C170.441 791.218 135.396 711.047 139.295 644.538L79.3983 641.026C74.2027 729.646 119.951 825.964 195.841 898.457C272.376 971.566 382.225 1023.23 510.286 1020.31L508.918 960.324ZM139.295 644.538C141.477 607.332 153.414 566.991 168.896 536.408C176.643 521.105 184.637 509.526 191.643 502.252C199.525 494.067 202.026 495.456 198.88 495.456V435.456C177.313 435.456 160.022 448.59 148.427 460.629C135.955 473.579 124.784 490.701 115.365 509.309C96.5128 546.548 82.1044 594.87 79.3983 641.026L139.295 644.538ZM223.037 483.245C241.957 457.551 260.87 433.191 279.25 414.411C298.483 394.759 313.178 385.43 323.035 383.301L310.367 324.653C282.25 330.727 257.047 351.316 236.37 372.444C214.84 394.442 193.829 421.721 174.722 447.667L223.037 483.245ZM346.012 347.584C342.368 330.879 340.449 313.435 340.449 295.456H280.449C280.449 317.714 282.826 339.446 287.39 360.371L346.012 347.584ZM340.449 295.456C340.449 228.828 359.744 171.304 396.639 130.774C433.11 90.7094 489.714 64 571.268 64V4C475.746 4 401.94 35.8195 352.27 90.3838C303.024 144.481 280.449 217.686 280.449 295.456H340.449ZM571.268 64C652.823 64 709.427 90.7094 745.898 130.774C782.793 171.304 802.088 228.828 802.088 295.456H862.088C862.088 217.686 839.512 144.481 790.267 90.3838C740.597 35.8195 666.791 4 571.268 4V64ZM802.088 295.456C802.088 322.916 797.611 349.14 789.339 373.399L846.127 392.765C856.538 362.238 862.088 329.468 862.088 295.456H802.088ZM795.259 402.955C797.613 405.617 800.295 408.369 803.342 410.997L842.529 365.562C841.96 365.071 841.194 364.325 840.207 363.209L795.259 402.955ZM803.342 410.997C805.395 412.768 807.528 414.588 809.639 416.391L848.596 370.758C846.462 368.936 844.447 367.216 842.529 365.562L803.342 410.997ZM809.639 416.391C819.245 424.592 828.284 432.346 834.99 439.313C838.336 442.789 840.248 445.208 841.156 446.61C842.506 448.697 840.13 446.114 840.13 440.335H900.13C900.13 428.682 894.954 419.304 891.524 414.005C887.65 408.021 882.801 402.465 878.22 397.706C869.074 388.203 857.607 378.451 848.596 370.758L809.639 416.391ZM840.13 440.335C840.13 438.004 840.762 436.914 840.577 437.291C840.407 437.64 839.772 438.74 838.269 440.382C835.2 443.736 830.17 447.538 823.967 450.399L849.097 504.883C861.75 499.047 873.519 490.739 882.534 480.886C890.945 471.695 900.13 457.585 900.13 440.335H840.13ZM823.967 450.399C818.609 452.871 808.39 456.879 794.717 460.815L811.315 518.474C827.441 513.832 840.571 508.816 849.097 504.883L823.967 450.399Z" fill="black"/>
</svg>
