<?xml version="1.0" encoding="UTF-8"?>
<svg width="1024px" height="1024px" viewBox="0 0 1024 1024" version="1.1" xmlns="http://www.w3.org/2000/svg" xmlns:xlink="http://www.w3.org/1999/xlink" xmlns:sketch="http://www.bohemiancoding.com/sketch/ns">
    <!-- Generator: Sketch 3.4.2 (15855) - http://www.bohemiancoding.com/sketch -->
    <title>Ducky</title>
    <desc>Created with Sketch.</desc>
    <defs></defs>
    <g id="Page-1" stroke="none" stroke-width="1" fill="none" fill-rule="evenodd" sketch:type="MSPage">
        <g id="Ducky" sketch:type="MSArtboardGroup">
            <path d="M761.606763,476.567804 C868.634573,503.216936 915.940364,558.901962 915.940364,717.638307 C915.940364,902.453638 748.271124,984.874289 509.602067,990.31632 C270.933011,995.75835 100.251925,797.911981 109.346923,642.781812 C114.234256,559.420289 162.037704,465.45611 198.879505,465.45611 C236.906841,413.815097 278.726774,362.17984 316.70079,353.977032 C312.596821,335.16253 310.448586,315.574641 310.448586,295.456017 C310.448586,151.057846 394.191247,34 571.268457,34 C748.345668,34 832.088329,151.057846 832.088329,295.456017 C832.088329,365.758687 805.856485,429.580627 761.606721,476.567849 Z" id="Oval-2" fill="#EFE238" sketch:type="MSShapeGroup"></path>
            <path d="M756.571409,333 C793.766072,333 803.53418,371.545898 822.935547,388.279297 C842.336914,405.012695 870.129905,427.247905 870.129883,440.334961 C870.129861,453.422017 855.387748,468.943909 836.531983,477.641218 C817.676217,486.338527 763.912109,504.701172 705.405273,502.009766 C646.898438,499.318359 547.463867,469.308625 547.463867,440.334961 C547.463867,411.361297 617.295699,397.916652 662.851562,374.861328 C708.407426,351.806005 719.376746,333 756.571409,333 Z" id="Path-1" fill="#F67823" sketch:type="MSShapeGroup"></path>
            <ellipse id="Oval-3" fill="#000000" sketch:type="MSShapeGroup" cx="569.255536" cy="264.255536" rx="50.2555362" ry="50.2555362"></ellipse>
            <path d="M831.143629,294.286708 C836.025639,293.687273 836.218195,273.525852 833.178201,248.76709 C830.138208,224.008327 823.792379,204.413966 818.91037,205.013401 C814.02836,205.612836 812.535111,226.169717 815.575105,250.92848 C818.615099,275.687242 826.26162,294.886143 831.143629,294.286708 Z" id="Oval-4" fill="#000000" sketch:type="MSShapeGroup"></path>
            <path d="M129.234375,726.835938 C129.234375,726.835938 194.720299,839.464653 246.536705,839.464653 C298.353111,839.464653 320.791092,814.980505 336.660217,782.599121 C320.791092,808.269516 279.660156,830.625 232.957031,816.328125 C186.253906,802.03125 129.234375,726.835938 129.234375,726.835938 Z" id="Path-2" fill="#C5B92C" sketch:type="MSShapeGroup"></path>
            <path d="M262.761183,545.610392 C235.218634,525.544749 220.764977,512 210.429941,488.680624 C228.253017,512 236.043779,518.777571 262.761183,538.720706 C289.478586,558.66384 340.68891,594.127598 349.974987,618.203131 C350.181925,618.739646 350.372361,619.277107 350.545883,619.815605 C368.084946,674.245293 364.472704,716.321039 350.545883,738.72998 C356.253098,702.776794 358.661034,665.759743 338.364159,623.563339 C328.153186,602.335129 290.303732,565.676035 262.761183,545.610392 Z" id="Path-3" fill="#F6ED83" sketch:type="MSShapeGroup"></path>
            <path d="M500.532356,51.0765129 C559.377845,40.0513775 655.827579,48.2608732 695.992916,69.2082094 C736.158252,90.1555455 770.511127,129.287213 782.521823,148.837261 C752.30429,122.431478 716.075325,97.504442 665.817405,78.3385675 C615.559486,59.172693 573.215835,56.9376981 500.532356,51.0765129 Z" id="Path-4" fill="#F6ED83" sketch:type="MSShapeGroup"></path>
            <path d="M824.909274,520.064675 C824.909274,520.064675 848.009988,559.091704 864.472465,586.082536 C880.934941,613.073367 908.299444,641.660477 908.299444,641.660477 C908.299444,641.660477 878.52661,598.637306 858.90702,568.805263 C839.287429,538.973221 824.909274,520.064675 824.909274,520.064675 Z" id="Path-5" fill="#C5B92C" sketch:type="MSShapeGroup"></path>
            <path d="M332.200888,404.320107 C332.200888,404.320107 356.368825,413.577649 367.433985,424.124608 C378.499145,434.671566 386.54838,454.655568 386.54838,454.655568 C386.54838,454.655568 374.511257,440.033278 361.709234,427.830798 C348.907212,415.628317 332.200888,404.320107 332.200888,404.320107 Z" id="Path-4" fill="#F6ED83" sketch:type="MSShapeGroup" transform="translate(359.374634, 429.487837) rotate(-180.000000) translate(-359.374634, -429.487837) "></path>
            <path d="M484.800135,512 C484.800135,512 549.451972,537.482513 618.465799,541.786272 C687.479627,546.090031 752.13147,519.067259 752.13147,519.067259 C752.13147,519.067259 696.457172,564.851086 625.948578,562.964516 C555.439984,561.077946 484.800135,512 484.800135,512 Z" id="Path-7" fill="#E0D122" sketch:type="MSShapeGroup"></path>
            <path d="M245,896.809085 C295.129193,912.457358 381.408561,958.932539 548.910156,952.96317 C716.411751,946.993802 776.655037,922.089617 852.820312,875.147779 C814.855013,925.213266 677.007579,977.490412 538.306824,982.433385 C399.606068,987.376359 295.129193,934.206762 245,896.809085 Z" id="Path-7" fill="#E0D122" sketch:type="MSShapeGroup"></path>
            <path d="M834.616201,441.036662 C854.992109,442.961996 858.884056,438.394572 856.545288,428.787966 C854.20652,419.18136 830.805472,409.731298 813.81195,385.669293 C796.818428,361.607289 777.920976,350.567721 777.920976,350.567721 C777.920976,350.567721 814.926554,390.549891 811.62227,408.674113 C808.317987,426.798334 814.240293,439.111327 834.616201,441.036662 Z" id="Path-9" fill="#FF9B57" sketch:type="MSShapeGroup"></path>
            <path d="M766.793856,471.394927 C689.991714,475.425675 644.999892,467.980217 646.016879,466.856045 C647.033866,465.731873 700.440225,474.366764 770.899974,466.856045 C783.029771,464.70469 797.907257,446.235302 807.020203,446.235302 C816.133148,446.235302 822.414331,455.572094 835.003448,455.81025 C847.592566,456.048406 855.557297,453.596842 855.557297,453.596842 C855.557297,453.596842 847.142173,458.86835 835.003448,459.408061 C822.864724,459.947772 816.861008,448.538678 807.020203,451.188738 C797.179398,453.838797 785.588476,468.543941 766.793856,471.394927 Z" id="Path-10" fill="#D76D24" sketch:type="MSShapeGroup"></path>
            <path d="M272,428.191525 C309.154581,421.921834 312.13279,399 325.072227,399 C328.494945,410.531827 337.145935,422.537796 337.145935,422.537796 C337.145935,422.537796 304.873539,434.120426 272,428.191525 Z" id="Path-7" fill="#E0D122" sketch:type="MSShapeGroup"></path>
            <path d="M552.804265,225.999888 C553.634142,224.413396 572.161692,218.962902 590.812629,228.316325 C609.463567,237.669748 613.064362,258.771055 612.30225,260.228 C611.540138,261.684945 601.117787,241.329285 586.834153,235.524851 C572.55052,229.720418 551.974389,227.58638 552.804265,225.999888 Z" id="Path-12" fill="#D8D8D8" sketch:type="MSShapeGroup"></path>
            <path d="M679.927345,458.786664 C679.927345,458.786664 726.501469,466.841854 756.872764,462.622892 C787.24406,458.403931 783.903053,449.581927 783.903053,449.581927 C783.903053,449.581927 775.978105,456.359749 748.563934,458.786664 C721.149763,461.213579 679.927345,458.786664 679.927345,458.786664 Z" id="Path-9" fill="#FF9B57" sketch:type="MSShapeGroup"></path>
        </g>
    </g>
</svg>